<svg xmlns="http://www.w3.org/2000/svg" width="31.926" height="34.311" viewBox="0 0 31.926 34.311">
  <g id="brochure" transform="translate(-48.84 -23.6)">
    <path id="Caminho_34" data-name="Caminho 34" d="M69.028,23.6a5.35,5.35,0,0,1,.813.439,1.582,1.582,0,0,1,.611,1.286c.006.614,0,1.229,0,1.843v.387h.4c1.7,0,3.4,0,5.093,0a.886.886,0,0,1,.682.28q1.923,1.939,3.862,3.862a.851.851,0,0,1,.268.652q-.007,11.844,0,23.688a1.759,1.759,0,0,1-1.889,1.879H61.048a1.757,1.757,0,0,1-1.89-1.878c-.006-2.334,0-4.668,0-7V48.6H51.821a2.8,2.8,0,0,1-.3,0,.462.462,0,0,1-.455-.45.47.47,0,0,1,.4-.534A1.441,1.441,0,0,1,51.8,47.6h7.329V46.047H51.8a1.5,1.5,0,0,1-.333-.013.5.5,0,0,1,.019-.982,1.884,1.884,0,0,1,.334-.01h7.315V43.519H52.183c-.829,0-1.123-.3-1.123-1.132q0-1.994,0-3.987c0-.877.279-1.152,1.17-1.152,2.177,0,4.356-.007,6.533.008.329,0,.429-.1.4-.414-.027-.3-.006-.6-.006-.95h-.419c-2.189,0-4.378.009-6.567-.011a1.5,1.5,0,0,1-.825-.259.9.9,0,0,1-.272-.642c-.023-1.485-.018-2.97-.009-4.455a.864.864,0,0,1,.976-.9q3.334-.006,6.667,0h.423c.011-.12.023-.217.029-.315a2.351,2.351,0,0,1,1.61-2.211c2.006-.777,4.018-1.541,6.025-2.312.093-.036.183-.077.354-.149-.153-.014-.23-.027-.308-.027H50.76a.781.781,0,0,0-.9.9q0,13.267,0,26.536c0,.635.28.908.926.908h6.232a2.221,2.221,0,0,1,.334.008.466.466,0,0,1,.439.467.473.473,0,0,1-.418.521,1.452,1.452,0,0,1-.3.012H50.806a1.777,1.777,0,0,1-1.954-1.952c0-8.733.01-17.467-.013-26.2A2.009,2.009,0,0,1,50.267,23.6Q59.644,23.6,69.028,23.6Zm6.622,4.961H61.125c-.709,0-.963.254-.963.971q0,13.2,0,26.4c0,.731.25.974,1,.974H78.778c.728,0,.979-.253.979-.989V32.676c-.75,0-1.462,0-2.175,0a1.767,1.767,0,0,1-1.931-1.936C75.649,30.028,75.65,29.315,75.65,28.561Zm-16.52,6.305V30.648H52.093v4.219Zm0,7.63V38.274H52.088V42.5ZM69.444,27.541c0-.768.006-1.5-.006-2.238a1.592,1.592,0,0,0-.128-.412l-6.773,2.6.019.047Zm7.229,1.851c0,.549-.026,1.124.011,1.7a.573.573,0,0,0,.521.54c.579.038,1.163.012,1.723.012Z" transform="translate(0 0)" fill="#fff"/>
    <path id="Caminho_35" data-name="Caminho 35" d="M190.323,137.735c.333-.4.652-.787.973-1.172a1.428,1.428,0,0,1,2.409-.013c.724.865,1.441,1.736,2.162,2.6.069.084.144.163.255.287v-6.876h-9.7c-.09,0-.179,0-.268,0-.365-.016-.575-.208-.569-.519s.206-.486.559-.486q4.942,0,9.883,0a1.108,1.108,0,0,1,1.123,1.167c.016.569,0,1.139,0,1.709q0,2.614,0,5.227c0,.956-.414,1.371-1.363,1.371H182.358c-.954,0-1.375-.417-1.375-1.362q0-3.384,0-6.768c0-.922.429-1.347,1.356-1.349.436,0,.871,0,1.307,0,.364,0,.588.2.585.5s-.233.5-.594.5c-.458.007-.916.006-1.374,0-.175,0-.275.045-.275.241,0,2.2,0,4.4,0,6.691.131-.147.209-.229.281-.317q1.745-2.1,3.488-4.2a1.321,1.321,0,0,1,1.484-.511,2,2,0,0,1,.831.574C188.837,135.912,189.563,136.818,190.323,137.735Zm-7.419,2.254a.9.9,0,0,0,.147.036q2.593,0,5.186,0a.326.326,0,0,0,.217-.052c.411-.478.812-.965,1.215-1.452-.827-1-1.62-1.96-2.423-2.917a.412.412,0,0,0-.706,0c-.228.259-.444.531-.665.8Zm6.85.01h5.509c-.833-1-1.625-1.964-2.429-2.916a.394.394,0,0,0-.66,0c-.238.266-.459.546-.685.821Z" transform="translate(-119.111 -97.308)" fill="#fff"/>
    <path id="Caminho_36" data-name="Caminho 36" d="M189.953,254.05h-7.2a1.807,1.807,0,0,1-.366-.021.493.493,0,0,1,.035-.972,2.7,2.7,0,0,1,.334-.012h14.461c.067,0,.134,0,.2,0,.357.016.554.185.563.483s-.2.515-.566.518c-1.115.007-2.232,0-3.347,0Z" transform="translate(-120.023 -206.817)" fill="#fff"/>
    <path id="Caminho_37" data-name="Caminho 37" d="M190,280.95h7.2a2.514,2.514,0,0,1,.334.009.49.49,0,0,1,.082.953,1.435,1.435,0,0,1-.4.041q-7.265,0-14.528,0a1.263,1.263,0,0,1-.427-.056.491.491,0,0,1,.107-.935,2.406,2.406,0,0,1,.368-.012Z" transform="translate(-120 -231.969)" fill="#fff"/>
    <path id="Caminho_38" data-name="Caminho 38" d="M188,308.821h5.221a3.145,3.145,0,0,1,.334.007.491.491,0,0,1,.067.968,1.6,1.6,0,0,1-.365.029q-5.271,0-10.542,0a1.391,1.391,0,0,1-.4-.042.49.49,0,0,1,.092-.952,2.7,2.7,0,0,1,.334-.009Z" transform="translate(-120.011 -257.092)" fill="#fff"/>
  </g>
</svg>
