<svg xmlns="http://www.w3.org/2000/svg" width="53.895" height="47.108" viewBox="0 0 53.895 47.108">
  <path id="Caminho_62" data-name="Caminho 62" d="M87.214,49.973v1.053a.869.869,0,0,0-.076.19,7.557,7.557,0,0,1-4.179,5.939.661.661,0,0,0-.389.7q.014,11.188.006,22.377c0,1.231-.483,1.717-1.717,1.717q-20.614,0-41.226,0c-1.243,0-1.718-.477-1.718-1.711q0-11.188.006-22.377a.7.7,0,0,0-.423-.732,7.592,7.592,0,0,1-4.086-5.493,3.6,3.6,0,0,1,.4-2.668c2.521-4.333,4.986-8.7,7.439-13.073a1.848,1.848,0,0,1,1.82-1.052c2.474.027,4.95.011,7.424.011q13.426,0,26.852-.012a1.975,1.975,0,0,1,1.935,1.134C81.906,40.65,84.567,45.307,87.214,49.973ZM40.586,79.255h4.652v-.733c0-4.388-.009-8.776,0-13.163A4.56,4.56,0,0,1,50.129,60.5c1.1,0,2.215-.056,3.316.02a6.041,6.041,0,0,1,2.128.469,4.367,4.367,0,0,1,2.568,4.244c.011,4.476,0,8.951,0,13.427v.586H79.907V58.017a7.865,7.865,0,0,1-6.844-3.394,7.763,7.763,0,0,1-12.786.033,7.843,7.843,0,0,1-12.856-.017,7.847,7.847,0,0,1-6.835,3.376C40.586,65.125,40.586,72.189,40.586,79.255ZM37.179,48.491h46.14c-.053-.112-.079-.176-.111-.234-1.973-3.476-3.954-6.947-5.913-10.43-.181-.322-.42-.31-.7-.31q-16.347,0-32.694-.008a.77.77,0,0,0-.777.454Q40.286,43,37.419,48.028C37.341,48.165,37.276,48.3,37.179,48.491Zm18.3,30.768c.011-.124.027-.226.027-.326q0-6.917,0-13.835a1.866,1.866,0,0,0-1.958-1.953c-1.122-.015-2.245,0-3.367,0-1.591,0-2.274.682-2.274,2.269q0,6.628,0,13.257v.593C50.461,79.259,52.958,79.259,55.481,79.259ZM45.991,51.217H36.059a5.05,5.05,0,0,0,9.933,0Zm2.9-.02a5.016,5.016,0,0,0,5.414,4.133A4.854,4.854,0,0,0,58.744,51.2Zm12.861,0a4.982,4.982,0,0,0,9.825,0Zm22.693.02h-9.9A4.938,4.938,0,0,0,79.2,55.346,5.036,5.036,0,0,0,84.447,51.222Z" transform="translate(-33.319 -34.84)" fill="#b30404"/>
</svg>
