<svg xmlns="http://www.w3.org/2000/svg" width="90.172" height="84.405" viewBox="0 0 90.172 84.405">
  <g id="employee" transform="translate(-23 -26.13)">
    <path id="Caminho_71" data-name="Caminho 71" d="M113.123,108.246a3.385,3.385,0,0,1-3.615,2.289c-13.012-.024-26.049,0-39.061-.024a15.382,15.382,0,0,1-2.072-.313,3.594,3.594,0,0,0-.506-.048,27.228,27.228,0,0,1-3.109.337q-19.049.036-38.1.024c-2.651,0-3.663-1.012-3.663-3.687V87.378a9.234,9.234,0,0,1,6.289-9.205c3.325-1.3,6.651-2.6,10-3.856a1.1,1.1,0,0,0,.843-1.181,2.6,2.6,0,0,0-.94-2.289,8.319,8.319,0,0,1-2.53-4.434,1.173,1.173,0,0,0-.988-1.012,4.478,4.478,0,0,1-2.627-6.627,3.119,3.119,0,0,0,.337-1.229,41.193,41.193,0,0,1,.578-6.265c1.108-4.386,4.072-7.205,8.314-8.675a1.3,1.3,0,0,1,1.735.771,1.287,1.287,0,0,1-.867,1.687,10.846,10.846,0,0,0-4.8,3.277,11.064,11.064,0,0,0-2.265,8.169c0,.048.072.072.145.145a.718.718,0,0,0,.265-.169,2.348,2.348,0,0,1,2.434-1.2,18.44,18.44,0,0,0,8.121-1.566c.916-.41,1.759-.916,2.651-1.374a2.24,2.24,0,0,1,3.157.458c.819.868,1.639,1.759,2.434,2.675a6.225,6.225,0,0,1,.627,1.036,1.043,1.043,0,0,0,.12-.024c.241-3.3-.361-6.362-2.843-8.723A21.075,21.075,0,0,0,49.651,45.4a8.039,8.039,0,0,0-1.06-.41,1.274,1.274,0,0,1-.843-1.687,1.25,1.25,0,0,1,1.711-.771c1.374.578,2.675,1.277,4.024,1.928a4.7,4.7,0,0,1,.627.434c.361-.771.723-1.494,1.012-2.241a3.562,3.562,0,0,0,.169-1.012,39.031,39.031,0,0,1,.482-6.1,12.581,12.581,0,0,1,24.6,1.229c.217,1.494.1,3.036.217,4.554a6.59,6.59,0,0,0,.434,1.639c.217.651.458,1.3.723,2A13.216,13.216,0,0,1,87.99,42.2,12.65,12.65,0,0,1,102.4,53.762c.048.771.048,1.518.048,2.289a7.245,7.245,0,0,0,.627,3.374,4.418,4.418,0,0,1-2.892,6.072,1.123,1.123,0,0,0-.94.964,9.266,9.266,0,0,1-2.675,4.651,3.638,3.638,0,0,0-.53,2.843,1.344,1.344,0,0,0,.651.386c3.422,1.325,6.819,2.627,10.241,3.976A9.152,9.152,0,0,1,113,85.474a1.246,1.246,0,0,0,.145.313v7.4c-.458.53-.94,1.084-1.759.747-.8-.313-.868-1.012-.868-1.735,0-1.663.024-3.35,0-5.012A6.156,6.156,0,0,0,107,81.257c-2.289-1.084-4.7-1.9-7.109-2.868-.916,1.855-1.807,3.615-2.7,5.4s-1.663,2.1-3.711,1.325a5.508,5.508,0,0,0-.169,1.47q1.3,8.06,2.7,16.121a2.9,2.9,0,0,1-.8,2.8c-.723.723-1.4,1.518-2.169,2.386h9.639V89.354a4.413,4.413,0,0,1,.12-1.133,1.056,1.056,0,0,1,1.325-.843,2.676,2.676,0,0,1,1.108,1.036c.145.217.048.627.048.94v18.579c1.59,0,3.036-.024,4.458,0,.627.024.8-.193.8-.819-.024-2.578,0-5.157-.024-7.735,0-.747.1-1.446.892-1.735.819-.313,1.325.193,1.759.8C113.123,101.667,113.123,104.969,113.123,108.246ZM42.711,85.016c-2.048.8-2.819.482-3.711-1.325-.892-1.783-1.783-3.542-2.7-5.374-2.024.771-3.976,1.542-5.928,2.289a6.645,6.645,0,0,0-4.723,6.844V98c0,3.012,0,6.048.024,9.061,0,.265.265.747.434.747,1.566.048,3.157.024,4.8.024V88.848c0-1.012.458-1.566,1.253-1.59.843-.024,1.325.53,1.374,1.566V107.74h9.591c-.8-.892-1.494-1.711-2.217-2.458a2.772,2.772,0,0,1-.747-2.651q1.41-8.1,2.723-16.193A5.278,5.278,0,0,0,42.711,85.016Zm18.82,22.844c1.639,0,3.133-.024,4.627,0,.554,0,.6-.313.6-.747q0-10.085-.024-20.145A5.9,5.9,0,0,0,63.652,81.4c-2.386-1.229-4.988-2.1-7.518-3.133-.217.41-.361.7-.506.964-.8,1.59-1.59,3.2-2.386,4.8a2.092,2.092,0,0,1-3.06,1.108,3.654,3.654,0,0,0-.53-.12,7.075,7.075,0,0,0-.145,1.542c.892,5.35,1.783,10.7,2.723,16.025a2.967,2.967,0,0,1-.867,2.868c-.723.7-1.374,1.494-2.121,2.313h9.639V88.679a1.275,1.275,0,0,1,1.229-1.422,1.308,1.308,0,0,1,1.374,1.3c.024.265.024.53.024.8v17.326C61.531,107.065,61.531,107.4,61.531,107.86ZM86.5,84.992c-2.072.8-2.868.506-3.735-1.229-.892-1.807-1.807-3.59-2.723-5.446-1.976.771-3.88,1.518-5.783,2.265-3.47,1.349-4.844,3.374-4.844,7.109V106.7a2.214,2.214,0,0,0,.024.7c.072.193.313.458.482.458,1.542.024,3.084.024,4.723.024V89.305a3.937,3.937,0,0,1,.145-1.2,1.03,1.03,0,0,1,1.3-.771,2.747,2.747,0,0,1,1.133,1.036c.145.217.048.627.048.94v18.483h9.639c-.843-.94-1.59-1.759-2.337-2.578a2.52,2.52,0,0,1-.675-2.265q1.41-8.169,2.747-16.386A8.01,8.01,0,0,0,86.5,84.992ZM39.025,57.907c0,2.337-.1,4.554.024,6.771a7.025,7.025,0,0,0,7.109,6.41,6.945,6.945,0,0,0,6.94-6.265c.12-1.807-.024-3.639.145-5.446a4.255,4.255,0,0,0-1.663-4.121c-.072-.048-.12-.169-.193-.193-.289-.072-.651-.217-.868-.12-.964.41-1.88.964-2.843,1.374A21.4,21.4,0,0,1,39.025,57.907ZM60.977,42a67.283,67.283,0,0,0,.048,7.326,7.053,7.053,0,0,0,13.928-.217c.217-2.53.12-5.084.145-7.639a.91.91,0,0,0-.193-.554c-.651-.747-1.349-1.446-2.024-2.193A22.141,22.141,0,0,1,60.977,42ZM82.689,58.244c0,1.084-.024,2.386,0,3.663a18.416,18.416,0,0,0,.289,3.831c.892,3.663,4.1,5.687,8,5.229a6.978,6.978,0,0,0,5.952-6.892c.048-1.542-.12-3.133.048-4.651a4.578,4.578,0,0,0-1.735-4.289.8.8,0,0,0-1.108-.145,24.358,24.358,0,0,1-4.241,1.855C87.58,57.425,85.195,57.762,82.689,58.244Zm17.085-2A10.218,10.218,0,0,0,94.81,45.979a10.042,10.042,0,0,0-14.844,10.6h.072c.072-.048.169-.1.193-.169a2.385,2.385,0,0,1,2.434-1.2,22.607,22.607,0,0,0,2.554-.072,18.988,18.988,0,0,0,8.073-2.771c.892-.53,1.855-.892,2.675-.12C97.364,53.521,98.569,54.943,99.774,56.244ZM77.917,40.364c.386-4.844-1.639-8.723-5.663-10.651a9.933,9.933,0,0,0-11.229,1.855c-2.386,2.289-3.807,6.819-2.771,9.277.723-1.735,2.169-1.422,3.542-1.518a20.72,20.72,0,0,0,4.844-.771A34.8,34.8,0,0,0,71.6,36.388c1.181-.578,1.976-.7,2.747.072C75.58,37.737,76.761,39.111,77.917,40.364ZM58.977,64.027c-.916.506-1.783.94-2.627,1.446-.313.193-.675.458-.747.771a9.566,9.566,0,0,1-2.843,4.844,3.762,3.762,0,0,0-.458,2.771,1.047,1.047,0,0,0,.41.289c3.566,1.4,7.133,2.771,10.771,4.169.434-2.627.843-5.2,1.325-7.759a1.268,1.268,0,0,0-.482-1.422c-1.615.723-2.554.386-3.325-1.157C60.278,66.654,59.579,65.256,58.977,64.027Zm18.073.193c-.506,1.012-1.108,2.193-1.687,3.35-1.012,2.048-1.518,2.265-3.856,1.566a8.187,8.187,0,0,0-.145,1.47c.072.868.265,1.735.41,2.6.289,1.687.578,3.374.892,5.133,3.446-1.325,6.819-2.627,10.169-3.952.386-.145,1.012-.482,1.012-.747,0-.8.41-1.663-.434-2.362A9.028,9.028,0,0,1,80.327,66.2a1.057,1.057,0,0,0-.458-.651C78.954,65.088,78.038,64.678,77.05,64.22ZM46.181,107.21c1.108-1.2,2.145-2.313,3.133-3.47a1.317,1.317,0,0,0,.217-.964Q48.3,95.33,47,87.884c-.193-1.133-.217-1.133-1.446-.988-.048.169-.12.361-.169.554-.867,5.157-1.759,10.338-2.6,15.519a1.024,1.024,0,0,0,.241.771C44.061,104.9,45.1,106,46.181,107.21ZM90.592,86.92c-.988-.265-1.349,0-1.518.94-.8,4.964-1.663,9.928-2.506,14.892a1.225,1.225,0,0,0,.145.892c1.036,1.2,2.121,2.337,3.2,3.566,1.108-1.2,2.145-2.337,3.157-3.518a1.167,1.167,0,0,0,.169-.868c-.482-3.012-.988-6-1.494-9.012C91.388,91.522,90.978,89.209,90.592,86.92ZM68.086,82a20.306,20.306,0,0,1,1.542-1.663,1.293,1.293,0,0,0,.458-1.446c-.217-.819-.289-1.663-.434-2.506-.313-1.807-.627-3.615-.916-5.374H67.411c-.482,2.8-.964,5.542-1.4,8.265a1.024,1.024,0,0,0,.241.771C66.809,80.7,67.435,81.305,68.086,82Zm-21.9-3.35c1.012-1.253,1.9-2.434,2.892-3.542a1.906,1.906,0,0,0,.41-1.976,10.721,10.721,0,0,1-6.844.024,5.285,5.285,0,0,0,.386,1.566C44.013,76,45.073,77.257,46.181,78.654Zm43.736-.024c1.036-1.277,1.976-2.482,2.964-3.615a1.808,1.808,0,0,0,.337-1.88,10.988,10.988,0,0,1-6.819,0,4.755,4.755,0,0,0,.337,1.566C87.749,76,88.809,77.257,89.918,78.63Zm-25.3-21.4c.072.6-.024,1.133.193,1.422,1.012,1.374,2.121,2.675,3.253,4.072,1.012-1.229,1.88-2.41,2.843-3.494a2.047,2.047,0,0,0,.458-2.024A10.589,10.589,0,0,1,64.616,57.232Zm-6.651-7.663a1.621,1.621,0,0,0-.265.169c1.157,2.482,1.036,5.133,1.06,7.759a7.565,7.565,0,0,0,.434,1.687c.819-.313,1.422-.53,2.024-.771.843-.337,1.253-2.145.53-2.747A10.292,10.292,0,0,1,58.4,50.148C58.351,49.907,58.11,49.738,57.965,49.569Zm20.242.169c-.12-.072-.217-.12-.337-.193a3.772,3.772,0,0,0-.458.8,9.8,9.8,0,0,1-2.819,4.868,1.889,1.889,0,0,0-.506,1.108c-.072,1.735-.048,1.735,1.59,2.386.072.024.169.072.241.1.747.289,1.133.048,1.229-.771.024-.313,0-.651,0-.964C77.17,54.581,77.1,52.1,78.207,49.738ZM97.34,77.377c-.675-.265-1.253-.506-1.831-.7-.193-.048-.506-.048-.6.072-1.036,1.229-2.024,2.458-3.06,3.735,1.036.723,1.952,1.4,2.916,2.072C95.629,80.8,96.472,79.136,97.34,77.377Zm-9.326,3.109c-.675-.843-1.3-1.615-1.928-2.386-1.374-1.687-1.374-1.687-3.35-.8-.048.024-.072.072-.145.193.819,1.663,1.663,3.325,2.53,5.06C86.11,81.835,87.026,81.185,88.014,80.486ZM51.025,82.558c.892-1.807,1.711-3.47,2.578-5.181-.675-.265-1.277-.53-1.88-.723a.752.752,0,0,0-.6.12c-1.012,1.2-2,2.434-3.012,3.711C49.1,81.185,50.013,81.835,51.025,82.558ZM75.484,61.449c-.675-.265-1.277-.53-1.9-.723a.687.687,0,0,0-.578.145c-1.012,1.2-1.976,2.434-3.012,3.711.988.7,1.928,1.374,2.916,2.072C73.773,64.847,74.616,63.184,75.484,61.449ZM41.362,82.558c.988-.7,1.928-1.374,2.916-2.072-1.036-1.277-2-2.482-2.988-3.663a.662.662,0,0,0-.578-.193c-.627.193-1.229.482-1.928.747C39.651,79.112,40.47,80.775,41.362,82.558ZM60.688,61.521c.843,1.687,1.687,3.35,2.554,5.109,1.012-.723,1.952-1.374,2.916-2.072-.7-.868-1.325-1.639-1.952-2.41-1.374-1.687-1.349-1.687-3.374-.771Zm5.952,6.024c.337.8.337.771,1.928.747a.822.822,0,0,0,.94-.771C67.821,66.268,68.351,66.172,66.64,67.546ZM44.687,83.426c.41,1.181,1.325.675,2.024.723.313.024.675-.289,1.181-.554-.747-.53-1.229-.868-1.735-1.229C45.675,82.727,45.218,83.064,44.687,83.426Zm45.23-1.06c-.506.361-.988.723-1.494,1.084.458,1.108,1.374.651,2.072.7.313.024.651-.313,1.133-.578C90.906,83.064,90.448,82.727,89.918,82.365Zm9.711-19.543a1.782,1.782,0,0,0,1.2-1.855,1.759,1.759,0,0,0-1.2-1.615Zm-63.376-.048V59.449A1.753,1.753,0,0,0,35.1,61.16,1.638,1.638,0,0,0,36.253,62.774ZM58.182,43.521a1.764,1.764,0,0,0-1.2,1.831,1.607,1.607,0,0,0,1.2,1.542Zm19.591,3.374a1.78,1.78,0,0,0,1.181-1.952A1.637,1.637,0,0,0,77.773,43.5ZM55.917,62.8A1.769,1.769,0,0,0,57.1,61.015a1.67,1.67,0,0,0-1.181-1.639Zm24.073,0V59.425a1.9,1.9,0,0,0-1.181,1.59A1.781,1.781,0,0,0,79.99,62.8Z" transform="translate(0 0)" fill="#b30404"/>
  </g>
</svg>
