<svg xmlns="http://www.w3.org/2000/svg" width="23.811" height="23.81" viewBox="0 0 23.811 23.81">
  <path id="facebook" d="M62.252,29.548V48.242a.405.405,0,0,0-.037.084,2.888,2.888,0,0,1-2.99,2.473q-2.546,0-5.091,0c-.6,0-.857-.258-.857-.866V41.727c0-.6.257-.857.866-.858.7,0,1.395,0,2.093,0,.082,0,.165-.007.256-.011v-1.99h-.265c-.721,0-1.442,0-2.162,0a.71.71,0,0,1-.787-.793q0-1.325,0-2.65a.81.81,0,0,1,.891-.895c.69,0,1.379,0,2.069,0h.247v-2c-.787,0-1.554,0-2.32,0a2.794,2.794,0,0,0-2.888,2.889c0,.868,0,1.736,0,2.6,0,.59-.256.844-.851.845-.7,0-1.41,0-2.115,0-.081,0-.162.009-.243.014v1.989h.269c.7,0,1.41,0,2.115,0a.725.725,0,0,1,.826.828q0,4.138,0,8.276a.724.724,0,0,1-.827.826q-4.51,0-9.02,0a3.251,3.251,0,0,1-.714-.073A2.887,2.887,0,0,1,38.444,47.8q0-7.893,0-15.785c0-.721-.008-1.442,0-2.162a2.892,2.892,0,0,1,1.976-2.71c.189-.064.386-.1.579-.153H59.7a.562.562,0,0,0,.106.04,2.766,2.766,0,0,1,2.066,1.439A7.059,7.059,0,0,1,62.252,29.548ZM54.7,42.279V49.4h.241q2.138,0,4.278,0a1.518,1.518,0,0,0,1.634-1.643q0-8.858,0-17.715a1.517,1.517,0,0,0-1.634-1.643q-8.869,0-17.739,0a2.024,2.024,0,0,0-.528.064,1.5,1.5,0,0,0-1.1,1.583q0,8.846,0,17.692A1.523,1.523,0,0,0,41.509,49.4h8.347V42.278c-.808,0-1.6,0-2.387,0a.734.734,0,0,1-.833-.828q0-1.581,0-3.162a.733.733,0,0,1,.831-.829c.713,0,1.426,0,2.139,0h.268c0-.672-.009-1.314,0-1.955a5.663,5.663,0,0,1,.084-1.016,4.159,4.159,0,0,1,4.044-3.359c1.03-.019,2.061-.006,3.092,0a.722.722,0,0,1,.818.813q0,1.592,0,3.185a.715.715,0,0,1-.8.806c-.721,0-1.442,0-2.162,0h-.262v1.529h.259c.728,0,1.457,0,2.185,0a.713.713,0,0,1,.778.764q.01,1.65,0,3.3a.708.708,0,0,1-.742.752c-.247.009-.5,0-.744,0C55.857,42.28,55.285,42.279,54.7,42.279Z" transform="translate(-38.441 -26.99)" fill="#b30404"/>
</svg>
