<svg id="informativo" xmlns="http://www.w3.org/2000/svg" width="84.46" height="72.327" viewBox="0 0 84.46 72.327">
  <path id="Caminho_51" data-name="Caminho 51" d="M37.892,95.111c.059-.182.128-.358.172-.545a6.734,6.734,0,0,1,6.569-5.237c3.686-.027,7.371,0,11.055-.017a3.417,3.417,0,0,0,1.2-.2Q68.162,84.7,79.425,80.253c.891-.351.91-.471.3-1.19-3.958-4.684-5.136-10-3.126-15.786a15.928,15.928,0,0,1,24.8-7.413c.778.589.947,1.3.5,1.9-.479.653-1.18.67-2.017.047A13.452,13.452,0,0,0,78.428,65.9,13.081,13.081,0,0,0,80.87,76.587a.872.872,0,0,0,.932.4,25.044,25.044,0,0,1,3.46-.029,1.841,1.841,0,0,1,1.772,1.848c-.157,1.693.177,2.82,2.125,3.026.4.042.8.626,1.09,1.043.5.721.9,1.509,1.4,2.368.449-.778.881-1.475,1.264-2.2a2.619,2.619,0,0,1,1.953-1.485c.135-.022.263-.081.4-.113,1.428-.329,2.3-.832,2.532-2.655a11.535,11.535,0,0,1,6.7-9.1.989.989,0,0,0,.618-1.013,14.127,14.127,0,0,0-1.418-6.294A2,2,0,0,1,103.556,61a1.224,1.224,0,0,1,.994-.655,1.811,1.811,0,0,1,1.2.771,14.591,14.591,0,0,1,1.8,6.365c.017.326.032.653.054,1.06.314-.015.579-.012.837-.044a12.42,12.42,0,0,1,3.4,24.6,12.573,12.573,0,0,1-7.825-1.359,1.439,1.439,0,0,0-1.045-.064c-1.286.476-2.547,1.021-3.811,1.556a1.289,1.289,0,0,1-1.779-1.779c.545-1.291,1.08-2.584,1.593-3.887a1.21,1.21,0,0,0,.088-.773c-.444-1.175-.94-2.331-1.421-3.5-.631.194-1.35.38-2.039.64a1.417,1.417,0,0,0-.645.562c-.577.935-1.1,1.9-1.661,2.847a1.8,1.8,0,0,1-3.3,0c-.54-.893-1.013-1.828-1.59-2.7a5.9,5.9,0,0,0-1.036-.964c-.076.061-.152.12-.226.182v5.46a8.412,8.412,0,0,1,6.122,3.813,7.93,7.93,0,0,1,1.278,4.94c-.267,4.059-2.788,6.731-7.462,7.818v.839c0,3.026,0,6.051,0,9.077a2.169,2.169,0,0,1-2.41,2.471c-.8.017-1.6.027-2.393-.012a2.048,2.048,0,0,1-2.14-2.211,1.052,1.052,0,0,0-.822-1.18c-6.14-2.385-12.265-4.81-18.5-7.264-.309.959-.609,1.887-.905,2.815-.093.287-.16.584-.275.864a1.242,1.242,0,0,1-1.607.768,1.218,1.218,0,0,1-.719-1.551c.361-1.237.758-2.466,1.136-3.691-1.477-1.04-3.7-1.288-8.13-.9-.012.272-.039.562-.039.849,0,4.842.017,9.681-.02,14.522-.007.837.245,1.087,1.077,1.07,2.228-.047,2.226-.012,2.9-2.159.412-1.31.82-2.621,1.249-3.924.285-.869.874-1.229,1.6-1.021A1.26,1.26,0,0,1,57.843,117c-.6,1.943-1.2,3.885-1.836,5.811a2.805,2.805,0,0,1-2.815,2q-1.2.018-2.393,0a2.888,2.888,0,0,1-3-3.112q-.011-7.424,0-14.851v-.989H45.276c-3.943,0-6.228-1.759-7.278-5.585a1.312,1.312,0,0,0-.108-.221Q37.894,97.588,37.892,95.111Zm42.229,17.43V94.556c0-.248-.01-.5,0-.741a1.19,1.19,0,0,1,1.168-1.239,1.22,1.22,0,0,1,1.283,1.134,6.585,6.585,0,0,1,.017.825V115.76h1.963V79.448H82.595v5.318a28.586,28.586,0,0,1-.044,3.212,1.693,1.693,0,0,1-.847,1.141A1.452,1.452,0,0,1,80.47,88.8a1.65,1.65,0,0,1-.336-1.121c-.034-1.637-.015-3.273-.015-4.994-.265.083-.42.123-.567.179Q68.973,87.02,58.392,91.16c-.513.2-.537.5-.537.94.01,3.656.02,7.315-.01,10.971a.89.89,0,0,0,.69,1c5.524,2.152,11.038,4.334,16.554,6.505C76.718,111.218,78.347,111.851,80.121,112.541Zm20.6-22.642a19.759,19.759,0,0,0,1.831-.753,2.08,2.08,0,0,1,2.3.179,9.46,9.46,0,0,0,6.23,1.369,9.926,9.926,0,0,0,4.976-17.722,9.927,9.927,0,0,0-14.672,12.834,2.071,2.071,0,0,1,.128,2.164C101.227,88.53,101.029,89.128,100.717,89.9Zm-45.36,1.9c-3.627,0-7.17-.017-10.714.007a4.248,4.248,0,0,0-4.272,4.314c-.012.879,0,1.759,0,2.638a4.3,4.3,0,0,0,4.623,4.63q4.826.015,9.649,0c.236,0,.469-.034.717-.054Zm31.758,11.5a5.733,5.733,0,0,0,4.967-6.071c-.2-2.8-2.528-5.283-4.967-5.261Z" transform="translate(-37.89 -52.496)" fill="#fff"/>
  <path id="Caminho_52" data-name="Caminho 52" d="M288.4,236.941c.091-.557.24-1.232.294-1.914a1.3,1.3,0,0,0-.27-.844c-.383-.464-.854-.856-1.278-1.286a1.634,1.634,0,0,1-.412-1.747A1.471,1.471,0,0,1,288.1,230a3.068,3.068,0,0,0,3.31-2.37,1.711,1.711,0,0,1,3.116.022,3.005,3.005,0,0,0,3.246,2.339,1.478,1.478,0,0,1,1.4,1.112,1.522,1.522,0,0,1-.429,1.811,3.186,3.186,0,0,0-1.266,3.889,1.622,1.622,0,0,1-2.341,1.818,3.564,3.564,0,0,0-4.319-.012A1.666,1.666,0,0,1,288.4,236.941Zm6.353-1.318a2.8,2.8,0,0,1,1.1-3.4,2.9,2.9,0,0,1-2.937-2.1,2.718,2.718,0,0,1-2.864,2.1,2.8,2.8,0,0,1,.957,3.6A2.852,2.852,0,0,1,294.753,235.624Z" transform="translate(-225.597 -183.907)" fill="#fff"/>
  <path id="Caminho_53" data-name="Caminho 53" d="M136.423,129.9a14.577,14.577,0,0,1,.287-1.718.988.988,0,0,0-.388-1.139c-.4-.341-.751-.726-1.121-1.094a1.662,1.662,0,0,1-.447-1.813,1.465,1.465,0,0,1,1.382-1.129,3.061,3.061,0,0,0,3.3-2.388,1.7,1.7,0,0,1,3.075-.012,3.224,3.224,0,0,0,3.293,2.422,1.612,1.612,0,0,1,.969,2.827,3.488,3.488,0,0,0-1.278,4.056,1.609,1.609,0,0,1-2.363,1.71,3.574,3.574,0,0,0-4.321,0A1.659,1.659,0,0,1,136.423,129.9Zm7.423-4.677c-1.539.044-2.353-.778-2.9-2.3a2.776,2.776,0,0,1-2.866,2.329,2.865,2.865,0,0,1,1.092,3.445,2.782,2.782,0,0,1,3.619-.044A2.811,2.811,0,0,1,143.846,125.222Z" transform="translate(-110.907 -103.163)" fill="#fff"/>
  <path id="Caminho_54" data-name="Caminho 54" d="M250.59,107.642c0,1.1.012,2.2-.007,3.3-.007.42.049.69.523.856a.956.956,0,0,1,.643,1.259,1.725,1.725,0,0,1-1.011,1,8.387,8.387,0,0,1-2.7.012,1.729,1.729,0,0,1-1.058-.952.993.993,0,0,1,.663-1.328c.469-.162.474-.429.471-.8-.007-1.649-.01-3.3,0-4.947,0-.385-.034-.648-.479-.812a1.089,1.089,0,0,1-.685-1.345,1.131,1.131,0,0,1,1.168-.962c.329-.012.66-.012.989-.007,1.072.02,1.467.42,1.477,1.514C250.595,105.5,250.587,106.572,250.59,107.642Z" transform="translate(-195.61 -90.537)" fill="#fff"/>
  <path id="Caminho_55" data-name="Caminho 55" d="M263.88,280.529c-1.08-.236-2.52.388-2.658-1.33-.069-.861.469-1.1,2.648-1.271,0-.415-.017-.842,0-1.269a1.239,1.239,0,1,1,2.466.027c.012.38,0,.763,0,1.293.469,0,.9-.017,1.318,0,.849.042,1.352.51,1.355,1.237,0,.743-.483,1.2-1.345,1.227-.4.015-.812,0-1.33,0,0,.54.02,1,0,1.453a1.2,1.2,0,0,1-1.178,1.232,1.222,1.222,0,0,1-1.266-1.156C263.843,281.521,263.88,281.052,263.88,280.529Z" transform="translate(-206.415 -220.633)" fill="#fff"/>
  <path id="Caminho_56" data-name="Caminho 56" d="M254.169,83.436c0,.972-.358,1.512-1.072,1.58a1.176,1.176,0,0,1-1.35-.942,1.738,1.738,0,0,1,.763-2.2C253.465,81.5,254.174,82.173,254.169,83.436Z" transform="translate(-199.192 -74.587)" fill="#fff"/>
  <path id="Caminho_57" data-name="Caminho 57" d="M315.081,146.717c1.291,0,2.581-.01,3.875,0,.928.01,1.433.454,1.438,1.217s-.518,1.244-1.421,1.249q-3.957.018-7.911,0a1.243,1.243,0,1,1-.017-2.464C312.389,146.7,313.737,146.717,315.081,146.717Z" transform="translate(-242.961 -123.593)" fill="#fff"/>
  <path id="Caminho_58" data-name="Caminho 58" d="M315.081,165.361c-1.318,0-2.638.01-3.956,0-.9-.007-1.455-.476-1.477-1.207-.022-.758.552-1.259,1.5-1.261q3.916-.011,7.83,0c.908,0,1.428.476,1.421,1.237s-.535,1.222-1.44,1.229C317.665,165.371,316.374,165.361,315.081,165.361Z" transform="translate(-242.961 -135.796)" fill="#fff"/>
  <path id="Caminho_59" data-name="Caminho 59" d="M315.01,179.059c1.318,0,2.638-.01,3.956,0,.9.007,1.426.481,1.421,1.242s-.535,1.224-1.44,1.227q-3.916.015-7.83,0c-.9,0-1.455-.474-1.477-1.207-.022-.758.555-1.256,1.5-1.264C312.428,179.051,313.719,179.059,315.01,179.059Z" transform="translate(-242.954 -147.999)" fill="#fff"/>
  <path id="Caminho_60" data-name="Caminho 60" d="M70.391,240.114c.66,0,1.32-.022,1.98,0a1.168,1.168,0,0,1,1.254,1.143,1.153,1.153,0,0,1-1.114,1.286c-1.455.052-2.915.054-4.368-.007a1.141,1.141,0,0,1-1.107-1.22,1.182,1.182,0,0,1,1.212-1.2c.714-.032,1.431-.007,2.145-.007C70.391,240.116,70.391,240.116,70.391,240.114Z" transform="translate(-59.884 -194.068)" fill="#fff"/>
  <path id="Caminho_61" data-name="Caminho 61" d="M70.313,224.865c-.687,0-1.377.029-2.061-.007a1.219,1.219,0,1,1,.007-2.437q2.061-.051,4.123,0A1.159,1.159,0,0,1,73.6,223.6a1.2,1.2,0,0,1-1.232,1.261c-.054,0-.11.01-.164.01h-1.9A.019.019,0,0,0,70.313,224.865Z" transform="translate(-59.862 -180.704)" fill="#fff"/>
</svg>
