<svg id="instagram" xmlns="http://www.w3.org/2000/svg" width="23.763" height="23.766" viewBox="0 0 23.763 23.766">
  <path id="Caminho_29" data-name="Caminho 29" d="M62.57,32.477v12.81a12.931,12.931,0,0,1-.288,1.33,5.928,5.928,0,0,1-5.69,4.143q-5.9.017-11.81,0a5.724,5.724,0,0,1-3.453-1.1,5.888,5.888,0,0,1-2.521-5.012q0-5.743,0-11.485a6.7,6.7,0,0,1,.089-1.177,5.776,5.776,0,0,1,3.707-4.566A11.95,11.95,0,0,1,44.284,27h12.81c.167.03.333.057.5.088a5.81,5.81,0,0,1,4.549,3.693A11.98,11.98,0,0,1,62.57,32.477Zm-1.994,6.405h.009c0-1.934,0-3.867,0-5.8a3.906,3.906,0,0,0-.358-1.778,3.859,3.859,0,0,0-3.663-2.314c-3.921-.014-7.842-.006-11.764,0a5.044,5.044,0,0,0-.692.054,3.9,3.9,0,0,0-3.3,3.7c-.026,4.045-.011,8.09-.013,12.135a3.515,3.515,0,0,0,.35,1.571,3.891,3.891,0,0,0,3.726,2.328q5.812.008,11.624,0a5.744,5.744,0,0,0,.785-.056,3.919,3.919,0,0,0,3.29-3.667C60.6,43,60.576,40.939,60.576,38.882Z" transform="translate(-38.807 -27)" fill="#b30404"/>
  <path id="Caminho_30" data-name="Caminho 30" d="M136.666,118.942a5.94,5.94,0,1,1-5.9-5.969A5.954,5.954,0,0,1,136.666,118.942Zm-5.936-3.984a3.955,3.955,0,1,0,3.951,3.954A3.949,3.949,0,0,0,130.73,114.958Z" transform="translate(-118.844 -107.032)" fill="#b30404"/>
  <path id="Caminho_31" data-name="Caminho 31" d="M283.979,87.279a1.481,1.481,0,0,1-.022-2.962,1.481,1.481,0,1,1,.022,2.962Z" transform="translate(-265.65 -80.356)" fill="#b30404"/>
</svg>
