<svg xmlns="http://www.w3.org/2000/svg" width="28.812" height="23" viewBox="0 0 28.812 23">
  <path id="mail" d="M44.79,63.031H55.473a3.544,3.544,0,0,1,3.714,3.708q0,7.8,0,15.6a3.543,3.543,0,0,1-3.7,3.69H34.09a3.547,3.547,0,0,1-3.714-3.709q0-7.8,0-15.6a3.545,3.545,0,0,1,3.7-3.69Zm12.476,6.562c-.143.087-.244.145-.342.207Q51.213,73.462,45.5,77.132a1.18,1.18,0,0,1-1.435,0q-5.714-3.689-11.446-7.349c-.1-.061-.193-.118-.326-.2V82.28a1.647,1.647,0,0,0,1.828,1.835h21.3a1.648,1.648,0,0,0,1.839-1.825V69.955C57.267,69.849,57.267,69.744,57.267,69.592ZM44.8,64.948q-5.4,0-10.8,0a1.616,1.616,0,0,0-1.677,1.363c-.037.224,0,.459-.029.686a.445.445,0,0,0,.265.473q6,3.841,12,7.7a.369.369,0,0,0,.474-.016q5.87-3.775,11.754-7.531a.9.9,0,0,0,.5-.894,1.662,1.662,0,0,0-1.8-1.782Z" transform="translate(-30.376 -63.03)" fill="#b30404"/>
</svg>
