<svg xmlns="http://www.w3.org/2000/svg" width="93.649" height="93.607" viewBox="0 0 93.649 93.607">
  <g id="maps" transform="translate(-37.4 -27.439)">
    <path id="Caminho_72" data-name="Caminho 72" d="M37.4,139a16.344,16.344,0,0,1,3.064-7.022,27.713,27.713,0,0,1,9.3-7.4,63.46,63.46,0,0,1,18.87-6.046c.163-.027.352-.081.678-.136-.217-.407-.38-.732-.569-1.057A98.09,98.09,0,0,1,61.1,100.5a21.531,21.531,0,0,1-.271-12.417A2.707,2.707,0,0,1,63.4,86,2.562,2.562,0,0,1,66,87.787a4.41,4.41,0,0,1,0,2.061,16.062,16.062,0,0,0,.271,8.838c.651,1.9,1.274,3.823,2.088,5.639a194.973,194.973,0,0,0,15.671,27.708c.027.054.081.081.19.217.271-.352.488-.7.759-1a2.717,2.717,0,0,1,4.528,2.982c-.976,1.6-2.006,3.2-3.145,4.717a2.725,2.725,0,0,1-4.555-.352c-2.63-4.04-5.205-8.079-7.808-12.146-.488-.759-.922-1.572-1.437-2.332a1.056,1.056,0,0,0-.759-.434c-7.917,1.139-15.616,3.064-22.367,7.564a21.359,21.359,0,0,0-4.663,4.311c-2.576,3.2-2.494,6.7,0,9.977a22.637,22.637,0,0,0,8.486,6.48,61.447,61.447,0,0,0,19.331,5.477,87.257,87.257,0,0,0,17.243.569,75.85,75.85,0,0,0,18.9-3.416,6.382,6.382,0,0,1,1.871-.38,2.714,2.714,0,0,1,.678,5.287c-2.82.84-5.666,1.681-8.54,2.332a76.714,76.714,0,0,1-13.393,1.708c-.3,0-.6.108-.895.136h-8.4l-.895-.163c-3.5-.38-7.049-.6-10.519-1.166a59.254,59.254,0,0,1-19.656-6.453,26.049,26.049,0,0,1-9.164-7.917,16.422,16.422,0,0,1-2.386-6.046C37.4,140.954,37.4,139.978,37.4,139Z" transform="translate(0 -42.682)" fill="#b30404"/>
    <path id="Caminho_73" data-name="Caminho 73" d="M180.345,75.606c3.2.786,6.29,1.41,9.326,2.277a44.63,44.63,0,0,1,14.884,6.995c3.118,2.332,5.748,5.124,6.968,8.92,1.6,4.961.3,9.354-2.982,13.149a35.907,35.907,0,0,1-4.88,4.392,2.653,2.653,0,0,1-3.877-.569,2.792,2.792,0,0,1,.651-3.823,36.964,36.964,0,0,0,4.257-3.958c2.738-3.308,2.657-6.859.081-10.275a19.018,19.018,0,0,0-5.26-4.609A49.664,49.664,0,0,0,183.3,81.95c-1.627-.352-3.281-.6-4.934-.922a1.229,1.229,0,0,0-1.545.651,2.692,2.692,0,0,1-4.934-1.193,5.085,5.085,0,0,1,.6-2.142c2.576-4.907,5.368-9.679,7.781-14.668a45.687,45.687,0,0,0,3.5-9.652c1.166-5.043-.407-9.652-3.47-13.719A18.666,18.666,0,0,0,153.64,37.08a3.071,3.071,0,0,1-2.576.922,2.72,2.72,0,0,1-1.3-4.8,22.629,22.629,0,0,1,11.577-5.449,24.17,24.17,0,0,1,27.735,18.789c1.057,4.663.3,9.11-1.328,13.529a112.037,112.037,0,0,1-6.859,14.613A7.5,7.5,0,0,0,180.345,75.606Z" transform="translate(-81.157)" fill="#b30404"/>
    <path id="Caminho_74" data-name="Caminho 74" d="M190.947,86.014A11.374,11.374,0,1,1,179.56,74.6,11.445,11.445,0,0,1,190.947,86.014Zm-17.27-.027a5.883,5.883,0,1,0,5.856-5.883A5.855,5.855,0,0,0,173.677,85.987Z" transform="translate(-95.338 -34.374)" fill="#b30404"/>
  </g>
</svg>
