<svg id="mobile-apple" xmlns="http://www.w3.org/2000/svg" width="17.55" height="18.581" viewBox="0 0 17.55 18.581">
  <path id="Caminho_67" data-name="Caminho 67" d="M95.971,133.158c-.552-.158-1.108-.309-1.656-.477a6.049,6.049,0,0,0-2.5-.126c-.693.078-1.388.161-2.085.2A3.827,3.827,0,0,1,87.3,132.1a.906.906,0,0,1-.166-.141,12.081,12.081,0,0,1-2.244-3.383,8.244,8.244,0,0,1-.553-2.794,8.42,8.42,0,0,1,.689-3.9,4.857,4.857,0,0,1,1.561-2.008,3.961,3.961,0,0,1,2.629-.74,6.125,6.125,0,0,1,2.275.586,3,3,0,0,0,1.378.259,14.158,14.158,0,0,0,2.316-.348,8.545,8.545,0,0,1,2.4-.2,6.533,6.533,0,0,1,3.538,1.413.571.571,0,0,1-.046,1.005,3.7,3.7,0,0,0-1.443,1.718,3.088,3.088,0,0,0,1.714,3.969l.093.045c.424.211.549.46.345.837a10.838,10.838,0,0,1-2.925,3.734,4.606,4.606,0,0,1-2.273.982.221.221,0,0,0-.056.024Zm4.35-4.788a4,4,0,0,1-2.226-3.379,4.539,4.539,0,0,1,1.639-3.653,5.045,5.045,0,0,0-4.348-.574,6.864,6.864,0,0,1-4.329.026c-.513-.163-1.027-.334-1.556-.448a2.45,2.45,0,0,0-2.024.4,3.56,3.56,0,0,0-1.159,1.479,7.648,7.648,0,0,0-.618,2.729,7.285,7.285,0,0,0,.66,3.7,12,12,0,0,0,1.779,2.533.548.548,0,0,0,.147.1,3.082,3.082,0,0,0,1.92.367c.6-.065,1.2-.162,1.8-.248a5.46,5.46,0,0,1,3.607.584.523.523,0,0,0,.259.052,3.736,3.736,0,0,0,2.1-.736A9.01,9.01,0,0,0,100.321,128.37Z" transform="translate(-84.329 -114.577)" fill="#b30404"/>
  <path id="Caminho_68" data-name="Caminho 68" d="M207.587,42.074a3.577,3.577,0,0,1-.79,1.813,5.848,5.848,0,0,1-2.781,1.774c-.569.188-1.167.316-1.753.469a3.965,3.965,0,0,1-.513.12c-.526.065-.893-.315-.7-.73A6.647,6.647,0,0,1,205.6,41.8a10.418,10.418,0,0,1,1.3-.233A.556.556,0,0,1,207.587,42.074Zm-1.653.846a5.321,5.321,0,0,0-2.826,1.786A4.674,4.674,0,0,0,205.935,42.92Z" transform="translate(-192.907 -41.56)" fill="#b30404"/>
</svg>
