<svg xmlns="http://www.w3.org/2000/svg" width="21.055" height="17.841" viewBox="0 0 21.055 17.841">
  <path id="mobile-play" d="M78.951,58.13h.576c.267.085.545.152.8.259,1.37.572,2.735,1.153,4.1,1.732q6.249,2.645,12.5,5.289a2.1,2.1,0,0,1,1.121.952c.051.1.09.2.134.307v.767a2.236,2.236,0,0,1-1.4,1.327q-5.92,2.484-11.825,5c-1.594.674-3.183,1.355-4.782,2.02a2.144,2.144,0,0,1-3-1.293,6.683,6.683,0,0,1-.041-1.233q0-6.647,0-13.293a1.848,1.848,0,0,1,1.6-1.781C78.808,58.164,78.88,58.147,78.951,58.13Zm10.081,8.925c-.059-.052-.109-.1-.162-.143q-4.534-3.836-9.064-7.676a.9.9,0,0,0-.826-.18.923.923,0,0,0-.793.973q0,7.018,0,14.037a1.309,1.309,0,0,0,.017.243.906.906,0,0,0,.712.72.966.966,0,0,0,.963-.215Q84.364,71,88.869,67.2C88.922,67.155,88.972,67.108,89.032,67.055Zm1.521.017q1.277,1.08,2.561,2.162a.2.2,0,0,0,.157.013c1.129-.474,2.266-.936,3.379-1.437a.8.8,0,0,0-.016-1.514c-1.14-.507-2.3-.982-3.432-1.464Zm-.773.661L82.7,73.72l9.437-3.99Zm2.367-3.346-9.4-3.978L89.8,66.372Z" transform="translate(-77.131 -58.13)" fill="#b30404"/>
</svg>
