<svg xmlns="http://www.w3.org/2000/svg" width="26.537" height="26.34" viewBox="0 0 26.537 26.34">
  <g id="radio" transform="translate(-42.147 -33.839)">
    <path id="Caminho_9" data-name="Caminho 9" d="M47.394,41.239H66.569a1.915,1.915,0,0,1,2.114,2.1V58.078a1.914,1.914,0,0,1-2.115,2.1H44.285a1.916,1.916,0,0,1-2.118-2.127V46.689a1.749,1.749,0,0,1,.007-.3.47.47,0,0,1,.931-.008,1.782,1.782,0,0,1,.009.325V58.1a.98.98,0,0,0,1.114,1.129h22.4a.971.971,0,0,0,1.106-1.107q0-7.413,0-14.826a.973.973,0,0,0-1.1-1.112H44.2a.965.965,0,0,0-1.09,1.092,3.552,3.552,0,0,1,0,.355.47.47,0,0,1-.467.444.475.475,0,0,1-.472-.44,2.035,2.035,0,0,1,1.758-2.4c.949-.212,1.869-.549,2.8-.838l20.906-6.482a1.557,1.557,0,0,1,.256-.068.445.445,0,0,1,.53.321.439.439,0,0,1-.252.564,2.089,2.089,0,0,1-.334.117l-20.118,6.23c-.11.034-.219.074-.328.112C47.389,41.2,47.392,41.221,47.394,41.239Z" fill="#cf0e05"/>
    <path id="Caminho_10" data-name="Caminho 10" d="M77.762,151.6H87.971c.786,0,1.14.351,1.14,1.132q0,1.273,0,2.545a.958.958,0,0,1-1.066,1.058h-20.6a.961.961,0,0,1-1.065-1.059q0-1.316,0-2.634a.952.952,0,0,1,1.051-1.042Q72.6,151.6,77.762,151.6Zm4.72,3.788c1.822,0,3.6,0,5.371,0,.252,0,.314-.141.313-.363-.006-.68,0-1.361,0-2.042,0-.4-.035-.437-.441-.437H67.783c-.421,0-.454.032-.454.455q0,.961,0,1.923c0,.44.024.463.474.463h13.73c0-.315,0-.59,0-.865,0-.345.192-.558.479-.553s.462.215.466.567C82.484,154.807,82.482,155.081,82.482,155.386Z" transform="translate(-22.322 -108.465)" fill="#cf0e05"/>
    <path id="Caminho_11" data-name="Caminho 11" d="M77.155,223.61a4.735,4.735,0,1,1-4.755,4.759A4.741,4.741,0,0,1,77.155,223.61Zm-.011.946a3.787,3.787,0,1,0,3.779,3.76A3.792,3.792,0,0,0,77.144,224.556Z" transform="translate(-27.866 -174.794)" fill="#cf0e05"/>
    <path id="Caminho_12" data-name="Caminho 12" d="M204.592,229.572h5.475a1.493,1.493,0,0,1,.266.007.47.47,0,0,1,0,.931,1.67,1.67,0,0,1-.3.008H199.059c-.4,0-.62-.17-.619-.474s.219-.473.62-.473Z" transform="translate(-143.959 -180.284)" fill="#cf0e05"/>
    <path id="Caminho_13" data-name="Caminho 13" d="M221.9,254.516h-4.764a1.357,1.357,0,0,1-.266-.009.471.471,0,0,1,.013-.933,1.38,1.38,0,0,1,.236-.006h9.588c.059,0,.118,0,.178,0a.472.472,0,0,1-.013.943c-.079.006-.158,0-.237,0Z" transform="translate(-160.565 -202.386)" fill="#cf0e05"/>
    <path id="Caminho_14" data-name="Caminho 14" d="M239.17,278.516h-4.025a1.49,1.49,0,0,1-.266-.007.47.47,0,0,1,0-.932,1.672,1.672,0,0,1,.3-.008h8.049a1.749,1.749,0,0,1,.3.007.47.47,0,0,1,0,.932,1.42,1.42,0,0,1-.266.007Z" transform="translate(-177.145 -224.492)" fill="#cf0e05"/>
    <path id="Caminho_15" data-name="Caminho 15" d="M273.258,309.03a1.419,1.419,0,1,1-1.441-1.412A1.423,1.423,0,0,1,273.258,309.03Zm-1.431-.464a.472.472,0,1,0,.483.454A.475.475,0,0,0,271.827,308.566Z" transform="translate(-210.258 -252.173)" fill="#cf0e05"/>
    <path id="Caminho_16" data-name="Caminho 16" d="M319.842,310.467a1.419,1.419,0,1,1,1.424-1.4A1.426,1.426,0,0,1,319.842,310.467Zm0-1.89a.471.471,0,1,0,.473.462A.475.475,0,0,0,319.845,308.577Z" transform="translate(-254.478 -252.183)" fill="#cf0e05"/>
    <path id="Caminho_17" data-name="Caminho 17" d="M43.361,170.1a.472.472,0,1,1-.464-.471A.476.476,0,0,1,43.361,170.1Z" transform="translate(-0.249 -125.073)" fill="#cf0e05"/>
    <path id="Caminho_18" data-name="Caminho 18" d="M112.187,261.51a1.894,1.894,0,1,1-1.894-1.9A1.9,1.9,0,0,1,112.187,261.51Zm-.948-.02a.945.945,0,1,0-.926.957A.953.953,0,0,0,111.239,261.491Z" transform="translate(-61.024 -207.953)" fill="#cf0e05"/>
    <path id="Caminho_19" data-name="Caminho 19" d="M47.394,41.239H66.569a1.915,1.915,0,0,1,2.114,2.1V58.078a1.914,1.914,0,0,1-2.115,2.1H44.285a1.916,1.916,0,0,1-2.118-2.127V46.689a1.749,1.749,0,0,1,.007-.3.47.47,0,0,1,.931-.008,1.782,1.782,0,0,1,.009.325V58.1a.98.98,0,0,0,1.114,1.129h22.4a.971.971,0,0,0,1.106-1.107q0-7.413,0-14.826a.973.973,0,0,0-1.1-1.112H44.2a.965.965,0,0,0-1.09,1.092,3.552,3.552,0,0,1,0,.355.47.47,0,0,1-.467.444.475.475,0,0,1-.472-.44,2.035,2.035,0,0,1,1.758-2.4c.949-.212,1.869-.549,2.8-.838l20.906-6.482a1.557,1.557,0,0,1,.256-.068.445.445,0,0,1,.53.321.439.439,0,0,1-.252.564,2.089,2.089,0,0,1-.334.117l-20.118,6.23c-.11.034-.219.074-.328.112C47.389,41.2,47.392,41.221,47.394,41.239Z" fill="#cf0e05"/>
    <path id="Caminho_20" data-name="Caminho 20" d="M77.762,151.6H87.971c.786,0,1.14.351,1.14,1.132q0,1.273,0,2.545a.958.958,0,0,1-1.066,1.058h-20.6a.961.961,0,0,1-1.065-1.059q0-1.316,0-2.634a.952.952,0,0,1,1.051-1.042Q72.6,151.6,77.762,151.6Zm4.72,3.788c1.822,0,3.6,0,5.371,0,.252,0,.314-.141.313-.363-.006-.68,0-1.361,0-2.042,0-.4-.035-.437-.441-.437H67.783c-.421,0-.454.032-.454.455q0,.961,0,1.923c0,.44.024.463.474.463h13.73c0-.315,0-.59,0-.865,0-.345.192-.558.479-.553s.462.215.466.567C82.484,154.807,82.482,155.081,82.482,155.386Z" transform="translate(-22.322 -108.465)" fill="#cf0e05"/>
    <path id="Caminho_21" data-name="Caminho 21" d="M77.155,223.61a4.735,4.735,0,1,1-4.755,4.759A4.741,4.741,0,0,1,77.155,223.61Zm-.011.946a3.787,3.787,0,1,0,3.779,3.76A3.792,3.792,0,0,0,77.144,224.556Z" transform="translate(-27.866 -174.794)" fill="#cf0e05"/>
    <path id="Caminho_22" data-name="Caminho 22" d="M204.592,229.572h5.475a1.493,1.493,0,0,1,.266.007.47.47,0,0,1,0,.931,1.67,1.67,0,0,1-.3.008H199.059c-.4,0-.62-.17-.619-.474s.219-.473.62-.473Z" transform="translate(-143.959 -180.284)" fill="#cf0e05"/>
    <path id="Caminho_23" data-name="Caminho 23" d="M221.9,254.516h-4.764a1.357,1.357,0,0,1-.266-.009.471.471,0,0,1,.013-.933,1.38,1.38,0,0,1,.236-.006h9.588c.059,0,.118,0,.178,0a.472.472,0,0,1-.013.943c-.079.006-.158,0-.237,0Z" transform="translate(-160.565 -202.386)" fill="#cf0e05"/>
    <path id="Caminho_24" data-name="Caminho 24" d="M239.17,278.516h-4.025a1.49,1.49,0,0,1-.266-.007.47.47,0,0,1,0-.932,1.672,1.672,0,0,1,.3-.008h8.049a1.749,1.749,0,0,1,.3.007.47.47,0,0,1,0,.932,1.42,1.42,0,0,1-.266.007Z" transform="translate(-177.145 -224.492)" fill="#cf0e05"/>
    <path id="Caminho_25" data-name="Caminho 25" d="M273.258,309.03a1.419,1.419,0,1,1-1.441-1.412A1.423,1.423,0,0,1,273.258,309.03Zm-1.431-.464a.472.472,0,1,0,.483.454A.475.475,0,0,0,271.827,308.566Z" transform="translate(-210.258 -252.173)" fill="#cf0e05"/>
    <path id="Caminho_26" data-name="Caminho 26" d="M319.842,310.467a1.419,1.419,0,1,1,1.424-1.4A1.426,1.426,0,0,1,319.842,310.467Zm0-1.89a.471.471,0,1,0,.473.462A.475.475,0,0,0,319.845,308.577Z" transform="translate(-254.478 -252.183)" fill="#cf0e05"/>
    <path id="Caminho_27" data-name="Caminho 27" d="M43.361,170.1a.472.472,0,1,1-.464-.471A.476.476,0,0,1,43.361,170.1Z" transform="translate(-0.249 -125.073)" fill="#cf0e05"/>
    <path id="Caminho_28" data-name="Caminho 28" d="M112.187,261.51a1.894,1.894,0,1,1-1.894-1.9A1.9,1.9,0,0,1,112.187,261.51Zm-.948-.02a.945.945,0,1,0-.926.957A.953.953,0,0,0,111.239,261.491Z" transform="translate(-61.024 -207.953)" fill="#cf0e05"/>
  </g>
</svg>
