<svg id="sac" xmlns="http://www.w3.org/2000/svg" width="60.32" height="56.828" viewBox="0 0 60.32 56.828">
  <path id="Caminho_64" data-name="Caminho 64" d="M91.8,64.322c-.151.564-.274,1.137-.461,1.688a8.127,8.127,0,0,1-7.346,5.52c-.9.039-1.805.024-2.709.015a1.824,1.824,0,0,1-1.962-2q-.008-7.508,0-15.018a30.824,30.824,0,0,0-.37-6.393,17.673,17.673,0,0,0-34.393-.754,19.964,19.964,0,0,0-.567,4.711c-.066,5.732-.025,11.464-.025,17.2,0,1.482-.442,2.111-1.888,2.261-3.451.357-6.583-.294-8.87-3.2a7.921,7.921,0,0,1-1.718-4.967c-.013-1.688-.01-3.377,0-5.064a8.238,8.238,0,0,1,8.072-8.231c.214-.007.427,0,.671,0a21.318,21.318,0,0,1,9.058-15.8,20.866,20.866,0,0,1,13.593-3.89c11.034.574,19.612,9.625,20.174,19.628.67.069,1.356.086,2.019.214a8.169,8.169,0,0,1,6.617,6.8,2.227,2.227,0,0,0,.106.331Q91.8,60.845,91.8,64.322Z" transform="translate(-31.476 -30.372)" fill="#b30404"/>
  <path id="Caminho_65" data-name="Caminho 65" d="M180.652,330.707c-.784,0-1.57.013-2.354,0a3.765,3.765,0,0,1-.064-7.529c1.607-.045,3.219-.044,4.825,0a3.764,3.764,0,0,1-.054,7.527C182.222,330.721,181.436,330.707,180.652,330.707Z" transform="translate(-150.487 -273.884)" fill="#b30404"/>
  <path id="Caminho_66" data-name="Caminho 66" d="M93.025,296.914v2.054A12.718,12.718,0,0,1,79.04,288.35h2.1a10.754,10.754,0,0,0,4.3,6.605A11.15,11.15,0,0,0,93.025,296.914Z" transform="translate(-71.038 -244.946)" fill="#b30404"/>
</svg>
