<svg xmlns="http://www.w3.org/2000/svg" width="24.88" height="24.879" viewBox="0 0 24.88 24.879">
  <path id="search" d="M65.506,55.827a10.137,10.137,0,1,1,1.277-1.283c.067.07.135.145.206.217q3.186,3.188,6.376,6.372a.962.962,0,0,1,.324,1.008.913.913,0,0,1-1.46.455A3.068,3.068,0,0,1,72,62.376q-3.156-3.156-6.312-6.314A2.628,2.628,0,0,1,65.506,55.827Zm1.773-7.761a8.3,8.3,0,1,0-8.312,8.286,8.415,8.415,0,0,0,7.462-4.642A7.944,7.944,0,0,0,67.279,48.067Z" transform="translate(-48.85 -37.926)" fill="#b30404"/>
</svg>
