<svg xmlns="http://www.w3.org/2000/svg" width="31.819" height="27.812" viewBox="0 0 31.819 27.812">
  <g id="stores" transform="translate(-33.319 -34.84)">
    <path id="Caminho_39" data-name="Caminho 39" d="M65.138,43.774V44.4a.513.513,0,0,0-.045.112,4.461,4.461,0,0,1-2.467,3.506.39.39,0,0,0-.229.412q.008,6.605,0,13.211c0,.727-.285,1.013-1.014,1.013H37.048c-.734,0-1.014-.281-1.014-1.01q0-6.605,0-13.211a.413.413,0,0,0-.25-.432,4.482,4.482,0,0,1-2.412-3.243,2.123,2.123,0,0,1,.235-1.575C35.1,40.622,36.553,38.044,38,35.462a1.091,1.091,0,0,1,1.074-.621c1.461.016,2.922.006,4.383.006q7.927,0,15.853-.007a1.166,1.166,0,0,1,1.143.669C62,38.27,63.575,41.02,65.138,43.774ZM37.61,61.062h2.747v-.433c0-2.591-.005-5.181,0-7.771a2.692,2.692,0,0,1,2.885-2.868c.652,0,1.307-.033,1.958.012a3.566,3.566,0,0,1,1.256.277,2.578,2.578,0,0,1,1.516,2.506c.006,2.643,0,5.284,0,7.927v.346H60.824V48.524a4.644,4.644,0,0,1-4.041-2,4.583,4.583,0,0,1-7.549.02,4.631,4.631,0,0,1-7.59-.01,4.633,4.633,0,0,1-4.035,1.993C37.61,52.72,37.61,56.891,37.61,61.062ZM35.6,42.9H62.839c-.031-.066-.047-.1-.065-.138-1.165-2.052-2.334-4.1-3.491-6.158-.107-.19-.248-.183-.414-.183q-9.651,0-19.3,0a.455.455,0,0,0-.459.268q-1.675,2.976-3.368,5.942C35.694,42.707,35.655,42.788,35.6,42.9ZM46.4,61.065c.006-.073.016-.134.016-.193q0-4.084,0-8.168a1.1,1.1,0,0,0-1.156-1.153c-.662-.009-1.325,0-1.988,0-.939,0-1.342.4-1.342,1.34q0,3.913,0,7.827v.35ZM40.8,44.509H34.936a2.981,2.981,0,0,0,5.864,0Zm1.713-.012a2.962,2.962,0,0,0,3.2,2.44A2.866,2.866,0,0,0,48.33,44.5Zm7.593,0a2.941,2.941,0,0,0,5.8,0Zm13.4.012H57.66a2.915,2.915,0,0,0,2.747,2.435A2.973,2.973,0,0,0,63.5,44.512Z" fill="#fff"/>
    <path id="Caminho_40" data-name="Caminho 40" d="M217.584,211.5c-.663,0-1.326,0-1.989,0a2.146,2.146,0,0,1-2.286-2.3q-.008-1.507,0-3.015a2.15,2.15,0,0,1,2.3-2.29q2,0,4.009,0a2.15,2.15,0,0,1,2.3,2.287q.008,1.507,0,3.015a2.147,2.147,0,0,1-2.313,2.3C218.931,211.507,218.257,211.5,217.584,211.5Zm.013-1.563c.683,0,1.367,0,2.049,0,.494,0,.709-.21.712-.693q.007-1.553,0-3.105a.605.605,0,0,0-.692-.685q-2.05-.007-4.1,0c-.479,0-.693.225-.694.712q-.005,1.536,0,3.074c0,.487.212.693.706.7C216.251,209.944,216.924,209.941,217.6,209.941Z" transform="translate(-163.857 -153.908)" fill="#fff"/>
  </g>
</svg>
