<svg id="youtube" xmlns="http://www.w3.org/2000/svg" width="32.831" height="23" viewBox="0 0 32.831 23">
  <path id="Caminho_32" data-name="Caminho 32" d="M65.667,91.6c-.061.278-.117.558-.183.835a6.387,6.387,0,0,1-6.105,4.937c-3.578.039-7.157.013-10.735.015-3.076,0-6.153.008-9.229,0a6.419,6.419,0,0,1-6.336-4.769,6.673,6.673,0,0,1-.225-1.674q-.03-5.047-.007-10.094a6.406,6.406,0,0,1,6.313-6.429c4.016-.044,8.033-.013,12.049-.015,2.628,0,5.255-.008,7.884,0a6.437,6.437,0,0,1,6.346,4.762c.092.336.154.681.23,1.021Q65.667,85.893,65.667,91.6ZM49.24,95.461q4.871,0,9.741,0a5.461,5.461,0,0,0,.894-.048,4.524,4.524,0,0,0,3.868-4.593q0-4.9,0-9.806a4.523,4.523,0,0,0-4.652-4.687c-1.25-.006-2.5,0-3.749,0q-7.948,0-15.894,0a4.519,4.519,0,0,0-4.682,4.689q0,4.9,0,9.806a4.993,4.993,0,0,0,.1,1.048,4.5,4.5,0,0,0,4.53,3.59C42.681,95.467,45.961,95.461,49.24,95.461Z" transform="translate(-32.837 -74.392)" fill="#b30404"/>
  <path id="Caminho_33" data-name="Caminho 33" d="M165.973,137.283c0-1.687,0-3.375,0-5.062a1.055,1.055,0,0,1,.5-1.033,1.034,1.034,0,0,1,1.139.119q4.074,2.571,8.156,5.127a1.061,1.061,0,0,1,.6.881,1.032,1.032,0,0,1-.594.949q-2.68,1.63-5.352,3.272c-.946.579-1.9,1.155-2.838,1.74a1.02,1.02,0,0,1-1.113.1,1.031,1.031,0,0,1-.5-1C165.975,140.678,165.973,138.981,165.973,137.283Zm7.62.059-5.681-3.571v7.048Z" transform="translate(-153.708 -125.844)" fill="#b30404"/>
</svg>
